<svg width="95" height="70" viewBox="0 0 95 70" fill="none" xmlns="http://www.w3.org/2000/svg">
<path d="M33.6235 31.2914C31.6536 31.2914 30.066 32.8789 30.066 34.8488C30.066 36.8086 31.6536 38.4061 33.6235 38.4061C35.5834 38.4061 37.1709 36.8086 37.1709 34.8488C37.1709 32.8789 35.5834 31.2914 33.6235 31.2914Z" fill="white"/>
<path d="M20.1193 21.9226V11.9458C20.1193 10.613 20.6672 9.39788 21.5302 8.53592L21.5403 8.52583L21.5494 8.53592C22.4224 7.65378 23.6367 7.11488 24.9602 7.11488C26.92 7.11488 28.5177 5.51724 28.5177 3.55744C28.5177 1.58755 26.92 0 24.9602 0C21.6677 0 18.6782 1.3427 16.5227 3.50825C14.3562 5.68389 13.0145 8.67327 13.0145 11.9458V21.9226C12.9844 24.4896 11.9266 26.8318 10.2408 28.5177C8.55491 30.2035 6.23281 31.2521 3.67482 31.2914H3.54742C1.58755 31.2914 0 32.8789 0 34.8488C0 36.8086 1.58755 38.4061 3.54742 38.4061H3.67482C6.23281 38.4354 8.55491 39.4841 10.2408 41.1689C11.9266 42.8648 12.9844 45.197 13.0145 47.7649V57.7408C13.0145 61.0242 14.3562 64.0227 16.5227 66.1883L16.7184 66.3649C18.874 68.4232 21.7751 69.6866 24.9602 69.6866C26.92 69.6866 28.5177 68.0989 28.5177 66.1392C28.5177 64.1692 26.92 62.5818 24.9602 62.5818C23.6958 62.5818 22.5297 62.082 21.6767 61.2881L21.5494 61.1516C20.6672 60.2787 20.1193 59.0633 20.1193 57.7408V47.7649C20.0992 43.2271 18.2468 39.1208 15.2684 36.1423C14.8078 35.6816 14.317 35.2502 13.8082 34.8488C14.317 34.4363 14.8078 34.0059 15.2684 33.5452C18.2468 30.5759 20.0992 26.4595 20.1193 21.9226Z" fill="white"/>
<path d="M91.4425 31.2914H91.3251C88.7672 31.2521 86.4441 30.2035 84.7591 28.5177C83.0733 26.8318 82.0146 24.4896 81.9854 21.9226V11.9458C81.9854 8.67327 80.6428 5.68389 78.4772 3.50825C76.3208 1.3427 73.3322 0 70.0397 0C68.0799 0 66.4823 1.58755 66.4823 3.55744C66.4823 5.51724 68.0799 7.11488 70.0397 7.11488C71.3624 7.11488 72.5777 7.65378 73.4497 8.53592L73.4597 8.52583L73.4697 8.53592C74.3317 9.39788 74.8807 10.613 74.8807 11.9458V21.9226C74.8997 26.4595 76.7523 30.5759 79.7316 33.5452C80.1922 34.0059 80.6719 34.4363 81.1917 34.8488C80.6719 35.2502 80.1922 35.6816 79.7316 36.1423C76.7523 39.1208 74.8997 43.2271 74.8807 47.7649V57.7408C74.8807 59.0633 74.3317 60.2787 73.4497 61.1516L73.3222 61.2881C72.4703 62.082 71.3032 62.5818 70.0397 62.5818C68.0799 62.5818 66.4823 64.1692 66.4823 66.1392C66.4823 68.0989 68.0799 69.6866 70.0397 69.6866C73.2148 69.6866 76.125 68.4232 78.2815 66.3649L78.4772 66.1883C80.6428 64.0227 81.9854 61.0242 81.9854 57.7408V47.7649C82.0146 45.197 83.0733 42.8648 84.7591 41.1689C86.4441 39.4841 88.7672 38.4354 91.3251 38.4061H91.4425C93.4124 38.4061 95 36.8086 95 34.8488C95 32.8789 93.4124 31.2914 91.4425 31.2914Z" fill="white"/>
<path d="M61.3865 31.2914C59.4166 31.2914 57.8291 32.8789 57.8291 34.8488C57.8291 36.8086 59.4166 38.4061 61.3865 38.4061C63.3464 38.4061 64.934 36.8086 64.934 34.8488C64.934 32.8789 63.3464 31.2914 61.3865 31.2914Z" fill="white"/>
<path d="M47.5 31.2914C45.5401 31.2914 43.9425 32.8789 43.9425 34.8488C43.9425 36.8086 45.5401 38.4061 47.5 38.4061C49.4597 38.4061 51.0574 36.8086 51.0574 34.8488C51.0574 32.8789 49.4597 31.2914 47.5 31.2914Z" fill="white"/>
</svg>
